<svg id="visual" viewBox="0 0 900 600" width="900" height="600" xmlns="http://www.w3.org/2000/svg" xmlns:xlink="http://www.w3.org/1999/xlink" version="1.1"><rect x="0" y="0" width="900" height="600" fill="#2d2d34"></rect><defs><linearGradient id="grad1_0" x1="33.3%" y1="0%" x2="100%" y2="100%"><stop offset="20%" stop-color="#d9d0ab" stop-opacity="1"></stop><stop offset="80%" stop-color="#d9d0ab" stop-opacity="1"></stop></linearGradient></defs><defs><linearGradient id="grad1_1" x1="33.3%" y1="0%" x2="100%" y2="100%"><stop offset="20%" stop-color="#d9d0ab" stop-opacity="1"></stop><stop offset="80%" stop-color="#bc9d8c" stop-opacity="1"></stop></linearGradient></defs><defs><linearGradient id="grad1_2" x1="33.3%" y1="0%" x2="100%" y2="100%"><stop offset="20%" stop-color="#907275" stop-opacity="1"></stop><stop offset="80%" stop-color="#bc9d8c" stop-opacity="1"></stop></linearGradient></defs><defs><linearGradient id="grad1_3" x1="33.3%" y1="0%" x2="100%" y2="100%"><stop offset="20%" stop-color="#907275" stop-opacity="1"></stop><stop offset="80%" stop-color="#5c4e58" stop-opacity="1"></stop></linearGradient></defs><defs><linearGradient id="grad1_4" x1="33.3%" y1="0%" x2="100%" y2="100%"><stop offset="20%" stop-color="#2d2d34" stop-opacity="1"></stop><stop offset="80%" stop-color="#5c4e58" stop-opacity="1"></stop></linearGradient></defs><defs><linearGradient id="grad2_0" x1="0%" y1="0%" x2="66.7%" y2="100%"><stop offset="20%" stop-color="#d9d0ab" stop-opacity="1"></stop><stop offset="80%" stop-color="#d9d0ab" stop-opacity="1"></stop></linearGradient></defs><defs><linearGradient id="grad2_1" x1="0%" y1="0%" x2="66.7%" y2="100%"><stop offset="20%" stop-color="#bc9d8c" stop-opacity="1"></stop><stop offset="80%" stop-color="#d9d0ab" stop-opacity="1"></stop></linearGradient></defs><defs><linearGradient id="grad2_2" x1="0%" y1="0%" x2="66.7%" y2="100%"><stop offset="20%" stop-color="#bc9d8c" stop-opacity="1"></stop><stop offset="80%" stop-color="#907275" stop-opacity="1"></stop></linearGradient></defs><defs><linearGradient id="grad2_3" x1="0%" y1="0%" x2="66.7%" y2="100%"><stop offset="20%" stop-color="#5c4e58" stop-opacity="1"></stop><stop offset="80%" stop-color="#907275" stop-opacity="1"></stop></linearGradient></defs><defs><linearGradient id="grad2_4" x1="0%" y1="0%" x2="66.7%" y2="100%"><stop offset="20%" stop-color="#5c4e58" stop-opacity="1"></stop><stop offset="80%" stop-color="#2d2d34" stop-opacity="1"></stop></linearGradient></defs><g transform="translate(900, 0)"><path d="M0 486.7C-57.7 465.1 -115.3 443.5 -175.3 423.1C-235.2 402.8 -297.4 383.8 -344.2 344.2C-391 304.6 -422.3 244.5 -443.5 183.7C-464.6 122.9 -475.7 61.4 -486.7 0L0 0Z" fill="#433d47"></path><path d="M0 389.4C-46.1 372.1 -92.3 354.8 -140.2 338.5C-188.2 322.2 -237.9 307 -275.3 275.3C-312.8 243.7 -337.8 195.6 -354.8 147C-371.7 98.3 -380.6 49.2 -389.4 0L0 0Z" fill="#766068"></path><path d="M0 292C-34.6 279.1 -69.2 266.1 -105.2 253.9C-141.1 241.7 -178.5 230.3 -206.5 206.5C-234.6 182.8 -253.4 146.7 -266.1 110.2C-278.8 73.7 -285.4 36.9 -292 0L0 0Z" fill="#a88780"></path><path d="M0 194.7C-23.1 186 -46.1 177.4 -70.1 169.3C-94.1 161.1 -119 153.5 -137.7 137.7C-156.4 121.8 -168.9 97.8 -177.4 73.5C-185.9 49.2 -190.3 24.6 -194.7 0L0 0Z" fill="#cdb69a"></path><path d="M0 97.3C-11.5 93 -23.1 88.7 -35.1 84.6C-47 80.6 -59.5 76.8 -68.8 68.8C-78.2 60.9 -84.5 48.9 -88.7 36.7C-92.9 24.6 -95.1 12.3 -97.3 0L0 0Z" fill="#d9d0ab"></path></g><g transform="translate(0, 600)"><path d="M0 -486.7C59.5 -472 118.9 -457.3 181 -437C243.1 -416.7 307.9 -391 344.2 -344.2C380.5 -297.4 388.4 -229.6 407.4 -168.8C426.5 -107.9 456.6 -53.9 486.7 0L0 0Z" fill="#433d47"></path><path d="M0 -389.4C47.6 -377.6 95.1 -365.8 144.8 -349.6C194.5 -333.4 246.3 -312.8 275.3 -275.3C304.4 -237.9 310.7 -183.7 325.9 -135C341.2 -86.3 365.3 -43.2 389.4 0L0 0Z" fill="#766068"></path><path d="M0 -292C35.7 -283.2 71.3 -274.4 108.6 -262.2C145.9 -250 184.7 -234.6 206.5 -206.5C228.3 -178.4 233 -137.8 244.5 -101.3C255.9 -64.7 274 -32.4 292 0L0 0Z" fill="#a88780"></path><path d="M0 -194.7C23.8 -188.8 47.6 -182.9 72.4 -174.8C97.2 -166.7 123.1 -156.4 137.7 -137.7C152.2 -119 155.4 -91.9 163 -67.5C170.6 -43.2 182.6 -21.6 194.7 0L0 0Z" fill="#cdb69a"></path><path d="M0 -97.3C11.9 -94.4 23.8 -91.5 36.2 -87.4C48.6 -83.3 61.6 -78.2 68.8 -68.8C76.1 -59.5 77.7 -45.9 81.5 -33.8C85.3 -21.6 91.3 -10.8 97.3 0L0 0Z" fill="#d9d0ab"></path></g></svg>